<?xml version="1.0" standalone="no"?>
<!DOCTYPE svg PUBLIC "-//W3C//DTD SVG 20010904//EN"
 "http://www.w3.org/TR/2001/REC-SVG-20010904/DTD/svg10.dtd">
<svg version="1.0" xmlns="http://www.w3.org/2000/svg"
 width="219.000000pt" height="219.000000pt" viewBox="0 0 219.000000 219.000000"
 preserveAspectRatio="xMidYMid meet">
<metadata>
Created by potrace 1.14, written by Peter Selinger 2001-2017
</metadata>
<g transform="translate(0.000000,219.000000) scale(0.100000,-0.100000)"
fill="#000000" stroke="none">
<path d="M674 2153 c-35 -45 -81 -116 -122 -193 -26 -47 -36 -56 -69 -64 -133
-31 -142 -35 -149 -71 -17 -90 37 -315 79 -331 8 -3 12 -40 13 -112 2 -108 26
-237 63 -340 l18 -48 -39 -90 c-22 -49 -51 -113 -64 -142 -13 -29 -24 -56 -24
-60 0 -5 -13 -21 -30 -37 -21 -20 -32 -44 -40 -84 -6 -31 -18 -76 -26 -100
-17 -55 -18 -71 -1 -71 7 0 21 25 31 56 13 42 20 53 30 45 9 -7 16 -7 24 1 9
9 12 9 12 -1 0 -7 7 -10 19 -6 16 5 20 -3 30 -54 11 -58 25 -81 39 -66 3 3 -1
35 -11 71 -15 58 -15 67 -2 80 25 26 22 76 -6 116 l-19 27 51 110 c29 61 55
111 58 111 4 0 28 -44 54 -97 26 -54 62 -126 81 -160 l34 -61 -24 -6 c-14 -4
-26 -16 -30 -32 -17 -66 19 -211 70 -286 20 -29 27 -33 62 -30 101 8 95 10
120 -36 26 -49 24 -64 -12 -81 -57 -26 -122 -7 -196 58 -48 43 -66 49 -85 30
-25 -25 62 -127 145 -170 73 -37 176 -30 231 15 8 6 42 11 75 11 47 0 79 8
139 34 76 32 114 62 178 139 21 25 34 32 63 32 48 0 129 -39 185 -89 40 -34
71 -44 71 -21 0 4 -27 35 -60 68 -76 75 -136 106 -211 106 l-56 0 4 41 c5 47
8 51 26 37 7 -6 22 -10 33 -7 54 11 201 58 211 67 43 35 -20 278 -85 328 -22
18 -26 18 -75 3 -86 -26 -82 -28 -78 62 4 99 8 168 10 178 0 4 12 0 25 -8 43
-29 73 -28 101 2 14 16 28 36 31 46 3 9 10 17 15 17 5 0 9 6 9 14 0 8 3 16 8
18 4 2 24 29 46 60 21 32 48 59 61 62 26 7 125 111 125 132 0 21 -12 17 -38
-13 l-23 -28 7 25 c3 14 12 35 20 47 18 28 18 43 0 43 -8 0 -20 -16 -26 -35
-6 -19 -16 -37 -21 -41 -11 -7 -6 27 10 69 11 28 8 47 -8 47 -4 0 -15 -25 -25
-55 -9 -30 -19 -55 -21 -55 -2 0 -1 24 2 53 5 45 4 50 -8 40 -8 -6 -21 -39
-28 -72 -14 -64 -20 -71 -41 -46 -7 8 -18 15 -26 15 -10 0 -11 -6 -3 -30 6
-16 14 -30 17 -30 4 0 7 -21 7 -48 0 -37 -8 -58 -37 -102 -42 -65 -92 -120
-108 -120 -20 0 -70 58 -70 82 -1 32 -8 131 -15 203 -7 82 -34 210 -55 270
-34 94 -34 92 4 99 45 9 61 45 53 129 -7 70 -30 165 -51 205 -29 57 -54 67
-116 47 -10 -3 -29 -8 -42 -10 -94 -18 -135 -28 -145 -37 -8 -7 -28 3 -65 30
-74 56 -195 119 -243 127 -38 6 -43 4 -71 -32z"/>
<path d="M562 307 c-6 -7 -16 -25 -21 -40 -6 -15 -17 -27 -24 -25 -8 2 -37
-20 -66 -49 -45 -45 -51 -55 -41 -73 6 -11 15 -20 20 -20 6 0 37 21 70 46 51
41 62 45 76 33 14 -12 15 -10 11 19 -4 23 0 36 12 45 22 16 21 27 -5 55 -17
18 -23 20 -32 9z m-58 -125 c-10 -9 -32 -26 -49 -36 l-30 -20 30 36 c17 20 39
37 49 37 20 1 20 1 0 -17z"/>
<path d="M1825 159 c-33 -11 -70 -17 -81 -14 -16 3 -23 -1 -27 -15 -3 -11 -13
-23 -24 -27 -27 -10 -32 -23 -20 -50 12 -28 42 -23 69 11 12 15 20 18 28 10
16 -16 153 53 146 73 -3 8 -6 19 -6 24 0 12 -15 10 -85 -12z m55 -14 c0 -13
-77 -43 -90 -35 -16 10 -14 11 50 29 19 5 36 10 38 10 1 1 2 -1 2 -4z"/>
</g>
</svg>
