<svg xmlns="http://www.w3.org/2000/svg" width="366.996" height="41.085" viewBox="0 0 366.996 41.085"><defs><style>.a{fill:#d1898b;}</style></defs><g transform="translate(-456.311 -2925.459)"><path class="a" d="M20.6,1.428,15.362,12.051,3.64,13.76a2.569,2.569,0,0,0-1.42,4.381L10.7,26.405,8.694,38.079a2.566,2.566,0,0,0,3.723,2.7L22.9,35.271,33.39,40.783a2.568,2.568,0,0,0,3.723-2.7L35.107,26.405l8.481-8.264a2.569,2.569,0,0,0-1.42-4.381L30.446,12.051,25.206,1.428a2.57,2.57,0,0,0-4.605,0Z" transform="translate(616.905 2925.46)"/><path class="a" d="M20.6,1.428,15.362,12.051,3.64,13.76a2.569,2.569,0,0,0-1.42,4.381L10.7,26.405,8.694,38.079a2.566,2.566,0,0,0,3.723,2.7L22.9,35.271,33.39,40.783a2.568,2.568,0,0,0,3.723-2.7L35.107,26.405l8.481-8.264a2.569,2.569,0,0,0-1.42-4.381L30.446,12.051,25.206,1.428a2.57,2.57,0,0,0-4.605,0Z" transform="translate(697.923 2925.46)"/><path class="a" d="M20.6,1.428,15.362,12.051,3.64,13.76a2.569,2.569,0,0,0-1.42,4.381L10.7,26.405,8.694,38.079a2.566,2.566,0,0,0,3.723,2.7L22.9,35.271,33.39,40.783a2.568,2.568,0,0,0,3.723-2.7L35.107,26.405l8.481-8.264a2.569,2.569,0,0,0-1.42-4.381L30.446,12.051,25.206,1.428a2.57,2.57,0,0,0-4.605,0Z" transform="translate(778.94 2925.46)"/><path class="a" d="M20.6,1.428,15.362,12.051,3.64,13.76a2.569,2.569,0,0,0-1.42,4.381L10.7,26.405,8.694,38.079a2.566,2.566,0,0,0,3.723,2.7L22.9,35.271,33.39,40.783a2.568,2.568,0,0,0,3.723-2.7L35.107,26.405l8.481-8.264a2.569,2.569,0,0,0-1.42-4.381L30.446,12.051,25.206,1.428a2.57,2.57,0,0,0-4.605,0Z" transform="translate(535.887 2925.46)"/><path class="a" d="M20.6,1.428,15.362,12.051,3.64,13.76a2.569,2.569,0,0,0-1.42,4.381L10.7,26.405,8.694,38.079a2.566,2.566,0,0,0,3.723,2.7L22.9,35.271,33.39,40.783a2.568,2.568,0,0,0,3.723-2.7L35.107,26.405l8.481-8.264a2.569,2.569,0,0,0-1.42-4.381L30.446,12.051,25.206,1.428a2.57,2.57,0,0,0-4.605,0Z" transform="translate(454.87 2925.46)"/></g></svg>